<svg xmlns="http://www.w3.org/2000/svg" viewBox="0 0 512 512">
  <rect width="512" height="512" rx="112" fill="#fbcfe8"/>
  <path d="M128 128V96a32 32 0 0 1 64 0v32h128V96a32 32 0 0 1 64 0v32h32a64 64 0 0 1 64 64v224a64 64 0 0 1-64 64H96a64 64 0 0 1-64-64V192a64 64 0 0 1 64-64h32zm0 32H96a32 32 0 0 0-32 32v224a32 32 0 0 0 32 32h320a32 32 0 0 0 32-32V192a32 32 0 0 0-32-32H128z" fill="#ec4899"/>
  <path d="M256 368c-44.18 0-80-35.82-80-80s35.82-80 80-80 80 35.82 80 80-35.82 80-80 80zm0-128c-26.47 0-48 21.53-48 48s21.53 48 48 48 48-21.53 48-48-21.53-48-48-48z" fill="#ec4899"/>
</svg>
